HIERARCHY
ROOT Hips
{
  OFFSET 32.5426 90.3016 127.184
  CHANNELS 6 Xposition Yposition Zposition Zrotation Xrotation Yrotation
  JOINT ToSpine
  {
    OFFSET -2.69724 7.43032 -0.144315
    CHANNELS 3 Zrotation Xrotation Yrotation
    JOINT Spine
    {
      OFFSET -0.0310711 10.7595 1.96963
      CHANNELS 3 Zrotation Xrotation Yrotation
      JOINT Spine1
      {
        OFFSET 13.1342 3.43533 0.764692
        CHANNELS 3 Zrotation Xrotation Yrotation
        JOINT Neck
        {
          OFFSET 29.8703 7.82586 -0.130764
          CHANNELS 3 Zrotation Xrotation Yrotation
          JOINT Head
          {
            OFFSET 9.52751 0.295786 -0.907742
            CHANNELS 3 Zrotation Xrotation Yrotation
            End Site
            {
              OFFSET 16.4037 0.713936 2.7358
            }
          }
        }
        JOINT LeftShoulder
        {
          OFFSET 27.5574 4.95586 2.47156
          CHANNELS 3 Zrotation Xrotation Yrotation
          JOINT LeftArm
          {
            OFFSET 1.20734 -0.998971 20.1238
            CHANNELS 3 Zrotation Xrotation Yrotation
            JOINT LeftForeArm
            {
              OFFSET 26.8049 -0.0536703 -0.155908
              CHANNELS 3 Zrotation Xrotation Yrotation
              JOINT LeftHand
              {
                OFFSET 26.6817 0 0.320147
                CHANNELS 3 Zrotation Xrotation Yrotation
                End Site
                {
                  OFFSET 18.6119 0 0.382219
                }
              }
            }
          }
        }
        JOINT RightShoulder
        {
          OFFSET 27.5927 4.71444 -2.65209
          CHANNELS 3 Zrotation Xrotation Yrotation
          JOINT RightArm
          {
            OFFSET 2.83739 -1.17114 -18.7564
            CHANNELS 3 Zrotation Xrotation Yrotation
            JOINT RightForeArm
            {
              OFFSET 28.839 -0.0548439 1.22491
              CHANNELS 3 Zrotation Xrotation Yrotation
              JOINT RightHand
              {
                OFFSET 26.5114 0 -0.101894
                CHANNELS 3 Zrotation Xrotation Yrotation
                End Site
                {
                  OFFSET 18.2168 0 0
                }
              }
            }
          }
        }
      }
    }
  }
  JOINT LeftUpLeg
  {
    OFFSET -4.76168 -1.9167 -10.2353
    CHANNELS 3 Zrotation Xrotation Yrotation
    JOINT LeftLeg
    {
      OFFSET 2.55951 -42.0585 -8.02213
      CHANNELS 3 Zrotation Xrotation Yrotation
      JOINT LeftFoot
      {
        OFFSET 3.16357 -42.5282 -3.95426
        CHANNELS 3 Zrotation Xrotation Yrotation
        JOINT LeftToeBase
        {
          OFFSET 0.346054 -6.02161 12.8035
          CHANNELS 3 Zrotation Xrotation Yrotation
          End Site
          {
            OFFSET 0.134235 -1.35082 5.13018
          }
        }
      }
    }
  }
  JOINT RightUpLeg
  {
    OFFSET -4.94151 -1.41743 10.6446
    CHANNELS 3 Zrotation Xrotation Yrotation
    JOINT RightLeg
    {
      OFFSET -2.56294 -42.0364 -7.94377
      CHANNELS 3 Zrotation Xrotation Yrotation
      JOINT RightFoot
      {
        OFFSET -3.0952 -42.555 -4.02241
        CHANNELS 3 Zrotation Xrotation Yrotation
        JOINT RightToeBase
        {
          OFFSET -0.0828122 -6.13587 12.8035
          CHANNELS 3 Zrotation Xrotation Yrotation
          End Site
          {
            OFFSET -0.131328 -1.35082 5.13018
          }
        }
      }
    }
  }
}
MOTION
Frames:	17
Frame Time:	0.0333333
-14.3824 90.4318 61.3624 70.6276 -17.7086 -6.48105 -70.1915 0 88.8779 84.0964 73.4421 3.3885 1.10722 23.7823 -0.247325 -132.735 33.7878 163.011 179.915 75.2077 -150.995 -0.502918 -19.1061 -27.4567 -55.97 33.2414 -139.436 33.6974 -8.28057 -101.45 0.420957 0.000575406 0.35866 -2.27959 7.90265 43.0964 -119.295 -21.5611 99.598 21.9429 -5.78305 75.805 0.58676 0.000330995 0.0646652 -45.7245 -3.93217 89.6179 -4.56581 54.4699 -6.2646 0.993302 -30.9252 -2.50042 4.87872 -12.8092 17.2625 -27.5967 -5.54857 91.4263 2.55268 40.8609 6.22423 -17.1491 9.29117 3.02122 2.22962 -19.6044 -17.0939 
-14.1416 89.3355 61.2622 70.0065 -19.4925 -7.08162 -70.1915 0 88.8779 90.3678 73.5475 -1.25905 -0.318286 24.2186 -1.0288 -135.015 33.9185 165.533 178.243 74.6557 -149.982 -0.2783 -17.9496 -27.165 -55.5752 33.6224 -138.447 33.9059 -8.3002 -101.385 0.420957 0.000575406 0.35866 -2.41362 8.32451 43.1856 -118.572 -22.0972 100.374 23.4565 -6.30298 75.6544 0.58676 0.000330995 0.0646652 -44.1171 -6.38225 86.9497 -4.71347 57.7556 -2.39182 2.06245 -31.1527 -2.35085 4.70856 -12.7747 19.2824 -24.9221 -3.80999 93.4529 2.85467 44.5739 5.58922 -18.5094 8.64442 3.25427 2.14483 -21.1751 -18.6167 
-13.7053 88.3027 61.2774 69.5092 -21.915 -8.23598 -70.1915 0 88.8779 95.2094 74.4666 -5.62226 -1.75052 25.252 -0.572269 -137.423 34.3173 167.672 178.615 74.6463 -151.525 -0.351305 -17.9979 -28.0595 -55.656 33.8352 -135.965 33.4624 -8.23725 -101.493 0.420957 0.000575406 0.35866 -2.31597 8.36909 41.8731 -118.03 -23.4195 100.617 23.5948 -6.53124 75.2581 0.58676 0.000330995 0.0646652 -43.2598 -8.17113 85.7618 -5.13752 60.6539 -0.259771 3.506 -31.1208 -2.12272 5.1947 -13.7205 22.3524 -22.5594 -1.86207 95.734 3.1992 48.1772 4.87923 -19.0498 7.46275 3.26355 2.08164 -21.7134 -19.8925 
-13.1315 87.147 61.4706 68.7697 -24.5704 -9.38478 -70.1915 0 88.8779 95.8166 75.0505 -5.84369 -2.2587 25.8244 -0.184325 -139.832 34.1844 170.839 177.557 73.9463 -151.245 -0.35585 -17.4837 -29.5023 -56.8665 34.0987 -131.231 32.9667 -8.55457 -102.174 0.420957 0.000575406 0.35866 -2.38576 8.54646 42.0898 -116.76 -24.809 102.567 24.0694 -7.20545 74.1736 0.58676 0.000330995 0.0646652 -42.9304 -9.33219 84.1324 -5.9801 63.4395 0.366175 3.30578 -30.6324 -2.12605 6.80585 -15.8721 23.2816 -19.9444 0.513399 97.6066 3.58408 52.0872 3.40986 -19.0878 6.4791 3.18617 2.06508 -22.4709 -19.2394 
-12.508 85.9778 61.9418 68.2209 -27.3565 -10.3166 -70.1915 0 88.8779 95.7412 75.6906 -6.03955 -2.85296 26.4009 0.388245 -141.509 33.518 171.631 -179.597 73.3285 -154.697 -0.131624 -16.4473 -29.1058 -57.6774 35.6103 -127.584 32.8571 -9.30273 -103.303 0.420957 0.000575406 0.35866 -2.40076 8.33601 42.9926 -115.398 -26.3416 104.071 24.7483 -6.46613 76.1196 0.58676 0.000330995 0.0646652 -43.0779 -9.28266 83.4761 -6.54244 65.8684 2.39557 3.4127 -31.0872 -2.13542 7.43189 -16.5474 19.1136 -17.471 3.6651 99.4132 4.22244 56.5267 1.85302 -17.703 5.45606 2.85229 2.05574 -22.0663 -20.0788 
-11.9578 85.0448 62.9724 67.3799 -30.001 -11.1426 -70.1915 0 88.8779 95.0527 76.5578 -6.38447 -3.70306 27.0485 1.44536 -145.138 32.8599 171.646 -175.859 72.8173 -160.579 0.157194 -15.2892 -27.6345 -60.2521 36.1004 -124.497 32.7277 -10.6062 -105.226 0.420957 0.000575406 0.35866 -2.25648 8.14397 41.9388 -115.7 -30.0339 103.812 27.5829 -3.43908 83.2617 0.58676 0.000330995 0.0646652 -43.0023 -7.4484 85.2567 -7.14936 67.5317 3.37379 3.86004 -32.0236 -2.11435 7.68197 -16.8875 18.9566 -14.493 7.23372 99.9016 5.02367 61.0718 -0.307332 -19.8742 8.61602 3.53111 1.74664 -26.24 -20.9948 
-11.6114 84.4704 64.2581 67.0781 -31.5565 -11.0773 -70.1915 0 88.8779 100.238 76.949 -13.4707 -6.05491 27.2223 3.23167 -147.746 32.5782 170.41 -174.524 72.6505 -162.956 0.529214 -13.8033 -24.2467 -65.963 34.507 -124.836 30.6075 -10.9957 -107.105 0.420957 0.000575406 0.35866 -1.97353 8.37861 37.7445 -116.701 -33.8753 104.512 29.3759 1.90676 93.1498 0.58676 0.000330995 0.0646652 -43.4567 -4.78752 86.8294 -7.80482 68.4778 3.11034 4.09653 -33.2245 -2.13537 7.69661 -16.9358 20.1086 -10.0729 8.18845 95.9255 5.37716 66.1798 -6.47341 -19.1706 10.7077 3.56839 1.86301 -25.2214 -20.2553 
-11.3762 84.5671 65.9475 68.0995 -32.0199 -9.86147 -70.1915 0 88.8779 110.103 75.9761 -25.5101 -9.26893 26.6061 4.79295 -148.816 32.0517 169.266 -173.394 72.2119 -164.955 0.734574 -13.2865 -19.5681 -77.2608 31.1352 -127.791 27.5716 -9.45654 -106.697 0.420957 0.000575406 0.35866 -1.46222 9.62082 28.8915 -121.435 -38.5233 109.742 37.1539 6.6171 98.3947 0.58676 0.000330995 0.0646652 -45.553 -1.53136 87.928 -8.19925 67.811 0.167614 4.44994 -33.3047 -2.07642 8.35189 -17.8293 21.6562 -5.80755 5.19346 87.9261 2.31465 68.7879 -18.1337 -25.6046 4.43136 4.11559 2.67498 -22.565 -3.66254 
-10.8088 85.7367 68.1166 69.9685 -33.1451 -8.17532 -70.1915 0 88.8779 124.081 73.8962 -41.0371 -14.2016 26.6152 5.60142 -147.148 31.09 165.625 -169.107 71.5946 -169.958 0.954184 -12.5869 -12.6299 -86.9611 29.4092 -137.545 22.2377 -4.98152 -101.234 0.420957 0.000575406 0.35866 -0.451484 10.1522 17.3002 -130.368 -43.437 114.286 39.0066 6.64632 97.8825 0.58676 0.000330995 0.0646652 -50.2864 2.36073 89.7568 -6.82384 63.9358 -2.68596 4.34214 -31.5397 -2.01174 9.29595 -19.0688 20.8545 -1.7741 4.5725 84.9875 3.44934 70.3581 -17.1055 -24.2345 3.20641 3.72139 2.37327 -23.2105 -11.6659 
-8.97061 87.624 71.0938 73.0168 -33.9067 -3.39017 -70.1915 0 88.8779 133.116 70.4516 -47.2897 -17.9477 26.1616 4.80498 -141.232 29.3539 164.911 -169.751 70.329 -165.022 1.07457 -12.1757 -6.7292 -93.3132 28.7263 -146.116 19.2005 -1.12283 -92.5095 0.420957 0.000575406 0.35866 1.11816 10.971 1.2216 -143.947 -50.1471 109.084 42.1938 1.5351 91.4677 0.58676 0.000330995 0.0646652 -57.6396 6.49776 88.4602 -4.82721 57.9667 -2.83822 3.43009 -28.3675 -1.9815 10.3466 -20.5592 18.1139 1.58623 3.69456 81.759 4.64582 72.8692 -17.5855 -24.1 2.45858 3.6027 2.30293 -28.6297 -13.6545 
-6.72056 90.9857 74.4277 76.415 -31.6228 2.82221 -70.1915 0 88.8779 132.069 68.6277 -43.7585 -17.0738 24.3768 4.3147 -131.851 26.3327 160.919 -163.21 68.7667 -167.495 1.19605 -12.8391 -2.02122 -94.3461 29.5991 -154.304 16.0487 1.94638 -82.6252 0.420957 0.000575406 0.35866 2.04183 9.63699 -10.0975 -150.745 -52.3338 106.342 41.8986 -7.5364 81.496 0.58676 0.000330995 0.0646652 -64.9608 9.49263 83.093 -2.86569 50.7139 0.355635 -0.141466 -22.5709 -1.93168 9.15986 -18.9962 12.9332 5.04232 0.123593 80.0306 10.584 78.241 -19.0591 -20.3715 0.926571 2.88336 1.46748 -29.981 -21.206 
-4.63791 94.4503 78.23 78.544 -29.6041 7.63028 -70.1915 0 88.8779 125.093 68.9501 -38.2516 -14.1804 21.5478 7.44371 -121.942 23.4444 156.952 -157.758 68.1275 -167.889 1.31776 -14.2707 -0.932587 -90.9553 30.2653 -161.493 15.8642 4.58355 -73.7159 0.420957 0.000575406 0.35866 2.24344 8.68423 -14.5119 -148.318 -53.0354 109.533 42.8926 -16.589 72.7594 0.58676 0.000330995 0.0646652 -66.4602 15.4756 82.9402 -2.22209 49.9966 3.71862 -2.76433 -10.2196 -0.790091 9.1225 -19.1187 1.96094 11.3369 -1.99283 80.8928 44.4255 85.3842 -46.8915 -16.5702 -0.259769 2.27921 -0.401042 -32.526 -33.3542 
-3.19175 97.1016 81.7212 80.3789 -27.5638 10.8762 -70.1915 0 88.8779 127.029 66.9566 -42.8537 -15.0723 19.1979 10.3944 -114.732 20.247 153.056 -152.229 67.5007 -168.426 1.28033 -15.4921 -3.44162 -85.5312 28.0374 -167.168 15.7368 5.81828 -69.6616 0.420957 0.000575406 0.35866 1.44234 6.54986 -9.23889 -135.353 -51.5786 120.948 40.2589 -20.4102 67.4761 0.58676 0.000330995 0.0646652 -61.1344 19.7652 85.0859 -2.86828 57.8458 6.91012 -0.507829 -1.49742 -0.148219 0.195722 -3.42914 8.28728 20.1115 -4.4475 83.58 149.748 81.9098 -150.186 -17.9197 -0.233777 2.454 -1.58706 -35.8214 -36.3296 
-1.51243 98.666 85.0587 83.0357 -24.9166 14.5222 -70.1915 0 88.8779 134.575 63.5287 -47.5639 -14.9176 19.023 8.32367 -113.081 20.5442 153.756 -157.04 68.156 -162.331 0.917482 -17.4131 -10.3517 -82.1154 24.193 -168.181 16.7894 6.50321 -68.8699 0.420957 0.000575406 0.35866 1.39029 8.29466 -4.85739 -130.465 -45.7936 121.385 38.6502 -21.245 65.4897 0.58676 0.000330995 0.0646652 -55.9277 22.8194 88.0044 -4.24904 62.4068 5.9314 1.86051 -6.06584 -0.708227 0.9203 -3.69674 4.8185 28.2348 -9.35507 85.8685 163.967 74.0823 -167.07 -22.4299 -1.98164 2.83143 -1.41074 -36.9967 -33.926 
0.429843 99.3494 87.9695 87.8145 -22.4663 18.1426 -70.1915 0 88.8779 143.854 58.6694 -54.5009 -14.331 19.1333 6.82887 -113.912 21.4953 154.701 -160.264 68.624 -158.733 0.506195 -19.8088 -14.5832 -77.4067 26.2465 -166.147 19.9546 6.73786 -71.5057 0.420957 0.000575406 0.35866 0.954939 10.4787 2.51994 -126.061 -38.1595 122.357 37.5619 -22.1423 63.7607 0.58676 0.000330995 0.0646652 -57.2435 23.5243 93.4784 -4.16161 56.0354 -1.79003 -1.45312 -12.2892 -1.03594 3.19938 -8.66638 7.59702 34.4498 -13.3886 89.3011 166.969 69.055 -170.595 -25.6417 -4.04387 2.89955 -1.19312 -34.295 -36.1015 
2.76189 99.2506 90.6986 91.3913 -19.3111 21.9125 -70.1915 0 88.8779 150.365 54.5929 -57.1664 -12.8386 19.142 5.47397 -115.365 21.8441 153.539 -154.575 68.8797 -165.046 -0.278833 -22.9425 -19.7673 -73.6328 26.6214 -162.513 18.1178 5.495 -73.1006 0.420957 0.000575406 0.35866 0.24047 10.3369 9.91695 -122.644 -30.7038 123.022 36.638 -23.4381 61.736 0.58676 0.000330995 0.0646652 -59.4094 21.8121 95.0925 -3.53062 45.2911 -10.2827 -4.28017 -11.5746 -0.891576 9.52253 -19.5994 11.0302 39.5134 -18.1952 92.7319 166.999 69.6667 -171.718 -26.2693 -5.74663 2.70201 -1.56581 -36.9712 -34.7776 
5.00281 98.3165 93.4649 94.5705 -19.2074 25.996 -70.1915 0 88.8779 157.597 50.9276 -59.8687 -13.9305 19.7392 6.32555 -115.136 23.7585 155.995 -159.078 69.9654 -160.877 -1.60051 -24.979 -27.7856 -72.2634 24.9218 -155.361 19.279 5.05478 -75.2581 0.420957 0.000575406 0.35866 -0.556902 11.8386 17.2493 -119.226 -20.5488 123.225 34.773 -25.1523 58.4118 0.58676 0.000330995 0.0646652 -59.6336 22.4693 96.8618 -2.27551 42.3935 -2.14655 -2.25195 -13.8341 -1.17653 3.65459 -10.4731 13.5087 42.1188 -19.7886 92.8328 162.833 75.834 -166.901 -27.275 -7.75963 2.45903 -1.73198 -37.2516 -35.3201 
